:SAMPLES-PER-SECOND 30
:FULLY-SPECIFIED
:DEGREES
445
root  -3.96747 32.4853 67.1677 170.82 -3.73584 92.8045
Spine  -5.94204 4.74713 -4.3358
Spine1  -5.51889 15.5208 5.2383
Neck  3.97569e-016 0 -2.38542e-015
Head  41.5201 -12.0697 12.1994
R_Clavicle  0.407223 -14.9222 1.92204
R_UpperArm  29.2309 1.91365 46.8494
R_Forearm  24.8031 -1.59277 1.31301
R_Hand  -0.0672147 7.35644 -11.2953
L_Clavicle  -0.4329 15.2463 0.367114
L_UpperArm  -15.2401 7.87501 12.2131
L_Forearm  -14.0912 20.82 26.0424
L_Hand  -0.323262 1.90339 -4.82215
L_Thigh  2.51844 0.0304328 5.30876
L_Calf  -12.06 2.3752 -18.0185
L_Foot  5.91993 10.0962 11.5454
L_Toe0  0.505156 0.034446 -6.1361
R_Thigh  -17.8726 5.43349 -1.57467
R_Calf  -0.521759 6.22131 19.8962
R_Foot  0.530032 3.68128 6.66821
R_Toe0  -1.80712 -0.271375 -17.3341
446
root  -3.99784 31.9483 67.5425 179.099 -3.5396 94.4523
Spine  -5.64471 6.26193 -3.40158
Spine1  -5.23194 14.996 6.52361
Neck  3.97569e-016 0 -2.38542e-015
Head  40.7902 -11.7142 11.6401
R_Clavicle  0.384724 -14.8357 1.59255
R_UpperArm  24.5228 2.89011 43.0089
R_Forearm  23.4541 3.18068 -2.66124
R_Hand  -0.126207 7.82079 -12.0526
L_Clavicle  -0.441404 15.6439 -0.172906
L_UpperArm  -8.60989 7.32857 14.7741
L_Forearm  -11.5549 22.3445 28.3574
L_Hand  -0.262316 0.942916 -4.52624
L_Thigh  0.715339 -4.34225 7.84621
L_Calf  -11.6497 4.04666 -31.4198
L_Foot  6.86808 10.431 14.237
L_Toe0  0.505156 0.034446 -6.1361
R_Thigh  -15.8488 6.34032 -3.17139
R_Calf  1.41991 5.17618 16.4729
R_Foot  -0.285768 0.958004 5.2305
R_Toe0  -1.66669 -0.270622 -17.2542
447
root  -3.92638 31.4908 67.9391 -172.79 -3.15576 95.6171
Spine  -5.2402 8.3517 -4.34296
Spine1  -4.64529 14.182 8.39019
Neck  3.97569e-016 0 -2.38542e-015
Head  40.111 -11.6142 10.6771
R_Clavicle  0.395881 -13.8675 1.80492
R_UpperArm  21.9535 3.83366 38.478
R_Forearm  22.1998 9.0563 -7.62909
R_Hand  -0.124405 7.72716 -11.9876
L_Clavicle  -0.462747 16.2776 -0.826747
L_UpperArm  -1.58751 5.46423 17.2944
L_Forearm  -11.6559 24.566 31.862
L_Hand  -0.164325 0.117791 -3.28703
L_Thigh  -3.58891 -6.99106 9.2428
L_Calf  -14.9949 5.12694 -41.2286
L_Foot  7.49489 9.45997 17.4207
L_Toe0  0.505156 0.034446 -6.1361
R_Thigh  -7.01404 4.90156 -3.46486
R_Calf  3.35713 4.2771 13.6138
R_Foot  -0.579739 -0.0803906 4.75027
R_Toe0  -0.564231 -0.271235 -16.6448
448
root  -3.72622 31.3554 68.3721 -165.39 -2.61807 96.1521
Spine  -4.45396 9.95043 -6.31135
Spine1  -3.62941 13.4747 9.54786
Neck  3.97569e-016 0 -2.38542e-015
Head  38.8974 -11.8138 10.7551
R_Clavicle  0.439984 -12.5803 2.34915
R_UpperArm  20.1734 5.10691 33.3871
R_Forearm  21.2007 13.6337 -11.648
R_Hand  -0.0494302 6.92798 -10.8519
L_Clavicle  -0.485989 16.8505 -1.09292
L_UpperArm  -0.300241 3.9064 19.1646
L_Forearm  -9.62881 28.6919 35.8125
L_Hand  -0.0611719 -1.19397 -1.70289
L_Thigh  -8.36215 -7.73028 9.96853
L_Calf  -17.1612 5.56479 -45.6611
L_Foot  7.39251 8.24802 18.6566
L_Toe0  0.505156 0.034446 -6.1361
R_Thigh  0.46321 3.72877 -4.27029
R_Calf  3.53943 4.05567 12.9251
R_Foot  -0.252543 1.04808 5.22505
R_Toe0  0.516157 -0.287826 -15.8966
449
root  -3.39711 31.623 68.731 -158.299 -2.57208 96.0853
Spine  -3.41177 10.2968 -7.69464
Spine1  -2.72851 12.8617 8.08179
Neck  3.97569e-016 0 -2.38542e-015
Head  36.1581 -11.873 12.9259
R_Clavicle  0.475777 -11.9076 2.71693
R_UpperArm  18.3145 6.47754 29.1474
R_Forearm  19.6863 15.6118 -13.449
R_Hand  0.0382824 6.12128 -9.44799
L_Clavicle  -0.49215 17.0549 -0.908626
L_UpperArm  -12.5828 3.99417 21.1506
L_Forearm  0.408756 35.6743 38.8055
L_Hand  -0.0211175 -3.32036 -1.41057
L_Thigh  -11.6158 -7.59249 10.4997
L_Calf  -15.6365 5.38316 -43.8249
L_Foot  7.14783 8.94633 16.9554
L_Toe0  0.505156 0.034446 -6.1361
R_Thigh  4.51305 3.39027 -6.30708
R_Calf  4.42273 4.71429 15.0374
R_Foot  0.292951 2.52138 4.73002
R_Toe0  -1.07438 -0.242636 -15.8789
450
root  -3.01175 32.1665 68.9131 -151.242 -3.12803 95.4344
Spine  -2.40166 10.0192 -8.31099
Spine1  -2.23111 11.5894 4.5819
Neck  3.97569e-016 0 -2.38542e-015
Head  31.9817 -11.4737 16.3061
R_Clavicle  0.489485 -11.8623 2.86024
R_UpperArm  16.5925 7.60287 26.1154
R_Forearm  18.2095 14.7976 -12.7054
R_Hand  0.067269 5.71636 -8.81772
L_Clavicle  -0.483456 16.8797 -0.648904
L_UpperArm  -23.2521 5.00879 23.9871
L_Forearm  5.46967 38.7083 42.8139
L_Hand  -0.00113744 -4.84491 -2.6514
L_Thigh  -13.0267 -7.10014 10.7216
L_Calf  -12.7748 4.5351 -35.8022
L_Foot  7.11186 10.3112 15.1395
L_Toe0  0.505156 0.034446 -6.1361
R_Thigh  7.12826 2.69752 -9.1491
R_Calf  6.27688 5.92153 18.9836
R_Foot  0.809565 3.56006 2.73661
R_Toe0  -2.08311 -0.185038 -15.0263
451
root  -2.64958 32.7935 68.9518 -144.827 -3.53454 94.537
Spine  -1.37337 10.406 -9.24769
Spine1  -1.61102 9.15042 1.87175
Neck  3.97569e-016 0 -2.38542e-015
Head  27.3486 -10.9553 19.0584
R_Clavicle  0.512433 -11.5735 3.08004
R_UpperArm  15.3446 8.87105 23.383
R_Forearm  18.474 11.4825 -9.74479
R_Hand  -0.00319414 5.71673 -9.46185
L_Clavicle  -0.471573 16.5595 -0.540204
L_UpperArm  -27.2191 4.99056 27.1569
L_Forearm  0.211298 38.2005 45.1811
L_Hand  -0.0212383 -4.48555 -3.56588
L_Thigh  -13.4325 -5.72741 10.3131
L_Calf  -10.7439 2.89453 -22.1586
L_Foot  7.28001 11.4111 14.3881
L_Toe0  0.505156 0.034446 -6.1361
R_Thigh  7.936 1.80662 -12.3386
R_Calf  4.08352 7.14042 23.0794
R_Foot  1.32742 4.74288 0.722844
R_Toe0  -3.79794 -0.0867566 -14.5614
452
root  -2.32855 33.3475 68.9656 -139.421 -3.49952 93.8082
Spine  -0.149224 11.1939 -10.7839
Spine1  -0.491753 6.48702 1.10956
Neck  3.97569e-016 0 -2.38542e-015
Head  23.0791 -10.8873 20.6552
R_Clavicle  0.547499 -10.3144 3.30794
R_UpperArm  14.4362 10.5626 20.8914
R_Forearm  20.7638 6.45619 -5.42373
R_Hand  -0.161154 5.81319 -10.9609
L_Clavicle  -0.453342 16.0217 -0.711359
L_UpperArm  -28.6905 3.69275 30.0256
L_Forearm  -8.67237 36.8584 45.3726
L_Hand  -0.0562895 -3.09363 -2.93484
L_Thigh  -13.8232 -3.41709 9.06275
L_Calf  -9.59714 0.465151 -3.92222
L_Foot  7.08663 13.4125 11.69
L_Toe0  0.505156 0.034446 -6.1361
R_Thigh  3.29205 1.76621 -15.8952
R_Calf  -3.88612 8.23676 26.8492
R_Foot  1.99256 6.81105 -0.0534225
R_Toe0  -5.40813 0.0136651 -14.2216
453
root  -1.99093 33.6254 69.0376 -134.142 -3.3585 93.4516
Spine  0.976559 10.8753 -11.695
Spine1  0.539586 5.23845 0.367064
Neck  3.97569e-016 0 -2.38542e-015
Head  19.9022 -11.2819 21.8915
R_Clavicle  0.557349 -8.32284 3.22359
R_UpperArm  13.1562 12.4838 19.2739
R_Forearm  23.8847 0.492853 -0.437836
R_Hand  -0.299774 5.42924 -11.9406
L_Clavicle  -0.40255 14.745 -1.24216
L_UpperArm  -28.7149 2.8063 33.3164
L_Forearm  -16.56 34.7379 43.5182
L_Hand  -0.0602353 -1.58861 -1.85454
L_Thigh  -14.6803 -1.04786 7.19997
L_Calf  -8.30869 -2.15155 15.9261
L_Foot  5.97348 16.8123 5.40659
L_Toe0  0.505156 0.034446 -6.1361
R_Thigh  -6.51918 2.62543 -19.9736
R_Calf  -12.0807 9.34657 30.7777
R_Foot  2.41281 8.40231 1.19836
R_Toe0  -4.85541 -0.0396443 -14.6024
454
root  -1.56075 33.4897 69.1435 -128.039 -3.05063 94.014
Spine  1.46973 9.69907 -11.2533
Spine1  0.772516 5.77074 -1.57953
Neck  3.97569e-016 0 -2.38542e-015
Head  18.2924 -11.2619 22.6314
R_Clavicle  0.546238 -6.44079 3.02663
R_UpperArm  10.4292 14.9741 17.9297
R_Forearm  26.5275 -6.05007 5.02502
R_Hand  -0.330185 4.43522 -11.4683
L_Clavicle  -0.314739 12.8671 -1.6567
L_UpperArm  -26.9507 2.42528 37.5753
L_Forearm  -21.2452 31.5284 40.1779
L_Hand  -0.0718531 -0.197049 -1.55615
L_Thigh  -13.273 1.4007 6.15448
L_Calf  -6.91585 -4.70265 31.9294
L_Foot  4.11512 19.9249 -1.92526
L_Toe0  0.505156 0.034446 -6.1361
R_Thigh  -13.7513 4.45061 -24.1298
R_Calf  -14.5188 10.3107 34.351
R_Foot  2.18459 8.02311 3.97392
R_Toe0  -3.26248 -0.200964 -16.0164
455
root  -1.06224 33.1036 69.1964 -121.348 -2.587 95.7637
Spine  1.37753 9.45964 -10.2273
Spine1  0.407416 6.77903 -3.01395
Neck  3.97569e-016 0 -2.38542e-015
Head  17.5433 -9.79198 21.5635
R_Clavicle  0.588504 -5.26577 3.24676
R_UpperArm  6.35794 18.3971 16.3548
R_Forearm  27.6025 -12.3426 10.4473
R_Hand  -0.309819 3.5983 -10.4665
L_Clavicle  -0.272387 11.6242 -1.35539
L_UpperArm  -25.6551 0.412941 41.1219
L_Forearm  -20.7489 28.28 36.9868
L_Hand  -0.131894 0.402243 -2.47933
L_Thigh  -5.43304 4.19856 7.25553
L_Calf  -8.73939 -7.5153 39.6995
L_Foot  2.44747 21.3558 -7.1433
L_Toe0  0.505156 0.034446 -6.1361
R_Thigh  -12.9732 7.6362 -27.4667
R_Calf  -11.4841 10.9201 36.917
R_Foot  1.41017 6.06489 6.08828
R_Toe0  -2.72084 -0.234516 -16.4992
456
root  -0.619487 32.6412 69.0914 -114.793 -2.57772 97.5905
Spine  1.35925 10.4401 -9.6005
Spine1  0.341978 6.98112 -2.22379
Neck  3.97569e-016 0 -2.38542e-015
Head  17.8878 -9.18059 19.1301
R_Clavicle  0.655284 -5.10019 3.67023
R_UpperArm  3.57101 21.4452 16.6168
R_Forearm  26.8729 -17.0673 14.7511
R_Hand  -0.262426 4.00324 -10.3787
L_Clavicle  -0.305634 11.5963 -0.498164
L_UpperArm  -28.1775 -3.29215 41.2276
L_Forearm  -15.1057 26.7298 35.3266
L_Hand  -0.209444 -0.3754 -4.52462
L_Thigh  -2.77322 6.05592 9.8522
L_Calf  -6.63559 -6.2615 39.2457
L_Foot  1.70293 22.2432 -9.4907
L_Toe0  0.505156 0.034446 -6.1361
R_Thigh  -7.57699 11.1991 -29.2128
R_Calf  -6.80005 10.9013 37.2741
R_Foot  0.0145483 2.54193 7.7217
R_Toe0  -3.04746 -0.2147 -16.211
